<?xml version="1.0" encoding="UTF-8" ?>
<!DOCTYPE svg PUBLIC "-//W3C//DTD SVG 1.1//EN" "http://www.w3.org/Graphics/SVG/1.1/DTD/svg11.dtd">
<svg width="500pt" height="500pt" viewBox="0 0 500 500" version="1.1" xmlns="http://www.w3.org/2000/svg">
<g id="#1591ebff">
<path fill="#1591eb" opacity="1.00" d=" M 94.86 79.87 C 120.64 42.37 164.73 18.63 210.02 16.39 C 236.34 16.29 262.66 16.22 288.98 16.38 C 300.73 16.07 312.24 18.84 323.59 21.51 C 358.51 31.20 390.21 53.67 409.23 84.72 C 417.91 97.97 423.56 112.95 427.43 128.24 C 429.21 137.70 431.29 147.30 430.45 156.99 C 429.56 160.75 425.94 163.71 422.03 163.49 C 401.35 163.48 380.66 163.46 359.97 163.50 C 355.05 163.92 350.27 159.96 349.85 155.01 C 347.33 135.51 335.94 117.18 319.03 106.97 C 310.30 101.55 300.25 98.26 290.03 97.36 C 264.00 97.28 237.97 97.35 211.94 97.32 C 200.93 98.10 190.12 101.79 181.02 108.07 C 166.17 118.39 155.27 134.43 151.80 152.25 C 150.06 167.77 151.27 183.42 151.08 199.00 C 150.96 208.32 151.35 217.66 150.88 226.97 C 146.08 233.40 139.32 238.03 133.38 243.33 C 129.69 246.72 125.18 249.09 121.64 252.65 C 115.49 259.56 107.73 264.75 100.75 270.75 C 95.86 276.34 89.01 279.57 83.78 284.78 C 79.17 288.46 75.31 293.08 70.24 296.15 C 69.94 292.77 69.82 289.38 69.85 286.00 C 70.03 241.31 69.66 196.62 70.03 151.93 C 71.40 126.25 80.34 101.05 94.86 79.87 Z" />
<path fill="#1591eb" opacity="1.00" d=" M 208.44 146.62 C 212.94 146.00 217.93 145.62 222.04 147.95 C 228.95 151.41 233.20 159.34 232.23 167.02 C 231.47 174.67 225.60 181.29 218.15 183.12 C 207.10 186.48 194.39 176.61 195.34 164.99 C 194.57 156.70 200.70 149.02 208.44 146.62 Z" />
<path fill="#1591eb" opacity="1.00" d=" M 282.43 146.58 C 289.04 145.21 296.35 146.91 300.75 152.27 C 309.04 160.97 305.77 177.08 294.78 181.90 C 284.93 187.30 271.42 180.50 269.06 169.72 C 266.13 159.97 272.63 149.00 282.43 146.58 Z" />
</g>
<g id="#10b89fff">
<path fill="#10b89f" opacity="1.00" d=" M 69.40 155.95 C 69.49 154.61 69.16 153.09 70.03 151.93 C 69.66 196.62 70.03 241.31 69.85 286.00 C 69.82 289.38 69.94 292.77 70.24 296.15 C 75.31 293.08 79.17 288.46 83.78 284.78 C 89.01 279.57 95.86 276.34 100.75 270.75 C 107.73 264.75 115.49 259.56 121.64 252.65 C 125.18 249.09 129.69 246.72 133.38 243.33 C 139.32 238.03 146.08 233.40 150.88 226.97 C 150.71 261.65 150.89 296.32 150.83 331.00 C 150.72 338.57 151.19 346.15 152.80 353.56 C 158.12 372.49 171.54 389.07 189.17 397.87 C 197.91 402.76 208.08 404.35 217.95 405.01 C 239.64 405.05 261.32 405.00 283.01 405.03 C 290.84 404.84 298.60 403.22 306.04 400.83 C 323.57 394.37 337.67 380.08 345.06 363.04 C 347.64 356.89 349.39 350.43 350.65 343.89 C 351.30 339.99 354.98 336.82 358.99 337.18 C 380.33 337.19 401.67 337.12 423.00 337.22 C 428.46 336.76 432.41 342.93 431.14 347.91 C 430.39 351.57 430.73 355.34 430.01 359.00 C 425.42 387.27 413.17 414.58 393.93 435.94 C 370.88 462.44 337.84 480.09 302.93 484.16 C 289.73 486.22 276.32 485.62 263.01 485.73 C 243.38 485.68 223.74 485.97 204.12 485.24 C 192.26 483.54 180.32 481.43 169.07 477.18 C 145.48 469.25 124.09 455.05 107.46 436.55 C 83.17 409.85 70.27 373.89 69.41 338.01 C 69.43 277.33 69.43 216.64 69.40 155.95 Z" />
<path fill="#10b89f" opacity="1.00" d=" M 210.25 318.15 C 219.92 316.02 230.50 323.34 232.03 333.14 C 234.73 344.19 225.22 355.76 214.00 355.83 C 205.60 355.84 197.68 349.74 195.56 341.62 C 195.02 336.86 194.67 331.59 197.48 327.42 C 200.02 322.53 204.94 319.31 210.25 318.15 Z" />
<path fill="#10b89f" opacity="1.00" d=" M 283.26 318.17 C 288.24 316.86 293.59 318.46 297.78 321.25 C 306.68 327.46 308.14 341.79 300.63 349.63 C 296.45 354.32 289.76 356.66 283.59 355.34 C 277.49 354.30 272.32 349.85 269.76 344.32 C 267.59 338.75 267.96 332.18 270.95 326.98 C 273.42 322.33 278.22 319.32 283.26 318.17 Z" />
</g>
</svg>
